<!DOCTYPE svg PUBLIC "-//W3C//DTD SVG 1.1//EN" "http://www.w3.org/Graphics/SVG/1.1/DTD/svg11.dtd">
<!-- Uploaded to: SVG Repo, www.svgrepo.com, Transformed by: SVG Repo Mixer Tools -->
<svg height="800px" width="800px" version="1.1" id="Layer_1" xmlns="http://www.w3.org/2000/svg" xmlns:xlink="http://www.w3.org/1999/xlink" viewBox="-128 -128 768.00 768.00" xml:space="preserve" fill="#242038">
<g id="SVGRepo_bgCarrier" stroke-width="0"/>
<g id="SVGRepo_tracerCarrier" stroke-linecap="round" stroke-linejoin="round"/>
<g id="SVGRepo_iconCarrier"> <g transform="translate(1)"> <polygon style="fill:#8D86C9;" points="161.133,486.4 485.4,486.4 485.4,230.4 161.133,230.4 "/> <polygon style="fill:#9067C6;" points="468.333,486.4 485.4,486.4 485.4,230.4 468.333,230.4 "/> <polygon style="fill:#F7ECE1;" points="161.133,486.4 178.2,486.4 178.2,230.4 161.133,230.4 "/> <polygon style="fill:#F7ECE1;" points="195.267,452.267 451.267,452.267 451.267,264.533 195.267,264.533 "/> <polygon style="fill:#CAC4CE;" points="425.667,452.267 451.267,452.267 451.267,264.533 425.667,264.533 "/> <g> <path style="fill:#8D86C9;" d="M24.6,298.667L24.6,298.667c-9.387,0-17.067-7.68-17.067-17.067V42.667 c0-9.387,7.68-17.067,17.067-17.067s17.067,7.68,17.067,17.067V281.6C41.667,290.987,33.987,298.667,24.6,298.667"/> <path style="fill:#8D86C9;" d="M485.4,68.267H41.667V102.4H485.4c9.387,0,17.067-7.68,17.067-17.067S494.787,68.267,485.4,68.267"/> </g> <path style="fill:#F7ECE1;" d="M24.6,281.6V42.667c0-5.973,3.413-11.947,8.533-14.507c-2.56-1.707-5.12-2.56-8.533-2.56 c-9.387,0-17.067,7.68-17.067,17.067V281.6c0,9.387,7.68,17.067,17.067,17.067c3.413,0,5.973-0.853,8.533-2.56 C28.013,293.547,24.6,287.573,24.6,281.6"/> <g> <path style="fill:#8D86C9;" d="M41.667,281.6c-5.12,0-8.533-3.413-8.533-8.533c0-93.867,85.333-179.2,179.2-179.2 c5.12,0,8.533,3.413,8.533,8.533c0,5.12-3.413,8.533-8.533,8.533c-84.48,0-162.133,77.653-162.133,162.133 C50.2,278.187,46.787,281.6,41.667,281.6z"/> <path style="fill:#8D86C9;" d="M203.8,247.467c-5.12,0-8.533-3.413-8.533-8.533v-128c0-5.12,3.413-8.533,8.533-8.533 c5.12,0,8.533,3.413,8.533,8.533v128C212.333,244.053,208.92,247.467,203.8,247.467z"/> <path style="fill:#8D86C9;" d="M459.8,247.467c-5.12,0-8.533-3.413-8.533-8.533v-128c0-5.12,3.413-8.533,8.533-8.533 s8.533,3.413,8.533,8.533v128C468.333,244.053,464.92,247.467,459.8,247.467z"/> </g> <path d="M24.6,307.2C10.093,307.2-1,296.107-1,281.6V42.667c0-14.507,11.093-25.6,25.6-25.6s25.6,11.093,25.6,25.6V281.6 C50.2,296.107,39.107,307.2,24.6,307.2z M24.6,34.133c-5.12,0-8.533,3.413-8.533,8.533V281.6c0,5.12,3.413,8.533,8.533,8.533 s8.533-3.413,8.533-8.533V42.667C33.133,37.547,29.72,34.133,24.6,34.133z"/> <path d="M485.4,110.933H41.667c-5.12,0-8.533-3.413-8.533-8.533V68.267c0-5.12,3.413-8.533,8.533-8.533H485.4 c14.507,0,25.6,11.093,25.6,25.6S499.907,110.933,485.4,110.933z M50.2,93.867h435.2c5.12,0,8.533-3.413,8.533-8.533 S490.52,76.8,485.4,76.8H50.2V93.867z"/> <path d="M41.667,273.067c-5.12,0-8.533-3.413-8.533-8.533c0-93.867,76.8-170.667,170.667-170.667c5.12,0,8.533,3.413,8.533,8.533 c0,5.12-3.413,8.533-8.533,8.533c-84.48,0-153.6,69.12-153.6,153.6C50.2,269.653,46.787,273.067,41.667,273.067z"/> <path d="M195.267,238.933c-5.12,0-8.533-3.413-8.533-8.533v-128c0-5.12,3.413-8.533,8.533-8.533c5.12,0,8.533,3.413,8.533,8.533 v128C203.8,235.52,200.387,238.933,195.267,238.933z"/> <path d="M451.267,238.933c-5.12,0-8.533-3.413-8.533-8.533v-128c0-5.12,3.413-8.533,8.533-8.533s8.533,3.413,8.533,8.533v128 C459.8,235.52,456.387,238.933,451.267,238.933z"/> <path d="M485.4,494.933H161.133c-5.12,0-8.533-3.413-8.533-8.533v-256c0-5.12,3.413-8.533,8.533-8.533H485.4 c5.12,0,8.533,3.413,8.533,8.533v256C493.933,491.52,490.52,494.933,485.4,494.933z M169.667,477.867h307.2V238.933h-307.2V477.867 z"/> <path d="M451.267,460.8h-256c-5.12,0-8.533-3.413-8.533-8.533V264.533c0-5.12,3.413-8.533,8.533-8.533h256 c5.12,0,8.533,3.413,8.533,8.533v187.733C459.8,457.387,456.387,460.8,451.267,460.8z M203.8,443.733h238.933V273.067H203.8 V443.733z"/> <path d="M391.533,409.6h-102.4c-5.12,0-8.533-3.413-8.533-8.533s3.413-8.533,8.533-8.533h102.4c5.12,0,8.533,3.413,8.533,8.533 S396.653,409.6,391.533,409.6z"/> <path d="M340.333,409.6c-33.28,0-59.733-26.453-59.733-59.733v-34.133c0-5.12,3.413-8.533,8.533-8.533h102.4 c5.12,0,8.533,3.413,8.533,8.533v34.133C400.067,383.147,373.613,409.6,340.333,409.6z M297.667,324.267v25.6 c0,23.893,18.773,42.667,42.667,42.667c23.893,0,42.667-18.773,42.667-42.667v-25.6H297.667z"/> <path d="M289.133,366.933c-28.16,0-51.2-23.04-51.2-51.2c0-5.12,3.413-8.533,8.533-8.533h42.667c5.12,0,8.533,3.413,8.533,8.533 c0,5.12-3.413,8.533-8.533,8.533h-33.28c3.413,14.507,17.067,25.6,33.28,25.6c5.12,0,8.533,3.413,8.533,8.533 S294.253,366.933,289.133,366.933z"/> </g> </g>
</svg>