<!DOCTYPE svg PUBLIC "-//W3C//DTD SVG 1.1//EN" "http://www.w3.org/Graphics/SVG/1.1/DTD/svg11.dtd">
<!-- Uploaded to: SVG Repo, www.svgrepo.com, Transformed by: SVG Repo Mixer Tools -->
<svg version="1.1" id="Layer_1" xmlns="http://www.w3.org/2000/svg" xmlns:xlink="http://www.w3.org/1999/xlink" viewBox="-76.8 -76.8 665.60 665.60" xml:space="preserve" width="800px" height="800px" fill="#000000">
<g id="SVGRepo_bgCarrier" stroke-width="0"/>
<g id="SVGRepo_tracerCarrier" stroke-linecap="round" stroke-linejoin="round"/>
<g id="SVGRepo_iconCarrier"> <path style="fill:#8D86C9;" d="M256.441,76.747L34.535,243.269l0.759,3.924c0.06,0.307,0.088,0.58,0.088,0.831v229.249H202.28 l-0.8-7.105c-0.011-0.1-0.01-0.202-0.01-0.305V287.841c0-2.113,1.72-3.833,3.833-3.833h101.368c2.113,0,3.833,1.72,3.833,3.833 v182.022c0,0.096,0.001,0.192-0.009,0.284l-0.829,7.128H477.5V248.025c0-0.252,0.028-0.524,0.088-0.831l0.759-3.924L256.441,76.747z M164.44,413.972H72.758c-2.113,0-3.833-1.72-3.833-3.833c0-2.085,1.632-3.764,3.717-3.823l6.21-0.173V287.841 c0-2.113,1.72-3.833,3.833-3.833h71.724c2.113,0,3.833,1.72,3.833,3.833v118.348l6.271,0.115c2.073,0.038,3.758,1.758,3.758,3.835 C168.273,412.252,166.553,413.972,164.44,413.972z M255.994,239.949c-24.738,0-44.863-20.125-44.863-44.863 c0-24.73,20.125-44.851,44.863-44.851c24.732,0,44.851,20.12,44.851,44.851C300.844,219.823,280.725,239.949,255.994,239.949z M440.175,413.972h-91.682c-2.113,0-3.833-1.72-3.833-3.833c0-2.098,1.648-3.782,3.753-3.836l6.227-0.158V287.841 c0-2.113,1.72-3.833,3.833-3.833h71.724c2.113,0,3.833,1.72,3.833,3.833v118.303l6.227,0.158c2.105,0.054,3.753,1.738,3.753,3.836 C444.008,412.252,442.289,413.972,440.175,413.972z"/> <path style="fill:#242038;" d="M256.441,35.692L14.937,216.925v31.476L254.152,68.883c0.832-0.627,1.703-0.759,2.289-0.759 c0.585,0,1.457,0.132,2.299,0.767l239.205,179.509v-31.476L256.441,35.692z"/> <polygon style="fill:#242038;" points="383.262,86.793 383.262,121.266 446.411,168.651 446.411,86.793 "/> <rect x="362.306" y="332.559" style="fill:#F7ECE1;" width="64.056" height="73.742"/> <rect x="362.306" y="291.669" style="fill:#9067C6;" width="64.056" height="33.223"/> <path style="fill:#CAC4CE;" d="M302.838,469.863V291.674h-93.7v178.189c0,0.103,0,0.207-0.012,0.307l-0.8,7.105H296.5l6.887-0.01 l-0.516-6.868C302.857,470.222,302.838,470.042,302.838,469.863z M238.89,391.68c-0.702,0.7-1.716,1.119-2.715,1.119 c-0.99,0-2-0.419-2.701-1.119c-0.7-0.7-1.118-1.715-1.118-2.714c0-0.999,0.418-2.015,1.103-2.7c0.714-0.71,1.73-1.133,2.717-1.133 c0.994,0,2.015,0.424,2.7,1.104c0.718,0.723,1.146,1.743,1.146,2.729C240.021,389.956,239.598,390.972,238.89,391.68z"/> <rect x="86.52" y="332.559" style="fill:#F7ECE1;" width="64.056" height="73.742"/> <rect x="86.52" y="291.669" style="fill:#9067C6;" width="64.056" height="33.223"/> <path style="fill:#F7ECE1;" d="M220.912,207.436c5.249,14.862,19.348,24.847,35.082,24.847c15.726,0,29.819-9.985,35.068-24.847 l3.008-8.517h-76.164L220.912,207.436z"/> <path style="fill:#9067C6;" d="M291.063,182.736c-5.247-14.854-19.339-24.834-35.068-24.834c-15.736,0-29.835,9.98-35.082,24.834 l-3.008,8.516h76.164L291.063,182.736z"/> <path d="M512,215.007v41.056c0,3.872-2.185,7.411-5.648,9.149c-1.444,0.716-3.016,1.073-4.574,1.073 c-2.172,0-4.332-0.69-6.133-2.044l-4.089-3.067v209.712h10.197c5.648,0,10.222,4.574,10.222,10.222 c0,5.635-4.574,10.222-10.222,10.222H10.222C4.575,491.33,0,486.743,0,481.108c0-5.648,4.575-10.222,10.222-10.222h11.104V261.173 l-4.089,3.067c-3.092,2.326-7.245,2.696-10.708,0.971c-3.463-1.738-5.648-5.277-5.648-9.149v-41.056c0-3.22,1.508-6.248,4.089-8.178 L250.307,22.711c3.629-2.722,8.638-2.722,12.267,0l106.632,80.028v-19.78c0-5.635,4.574-10.222,10.222-10.222h70.815 c5.635,0,10.222,4.587,10.222,10.222v87.848c0,0.141-0.013,0.268-0.026,0.396l47.47,35.625C510.492,208.758,512,211.787,512,215.007 z M491.555,235.618v-15.5L256.441,43.68L21.326,220.118v15.5L250.307,63.78c1.814-1.367,3.974-2.044,6.133-2.044 c2.159,0,4.319,0.677,6.133,2.044L491.555,235.618z M471.315,245.98L256.441,84.735L41.567,245.98 c0.128,0.664,0.204,1.342,0.204,2.044v222.86h153.361c-0.038-0.332-0.051-0.677-0.051-1.022V287.841 c0-5.648,4.575-10.222,10.222-10.222h101.368c5.648,0,10.222,4.574,10.222,10.222v182.022c0,0.345-0.013,0.69-0.051,1.022h154.268 v-222.86C471.111,247.322,471.187,246.645,471.315,245.98z M440.022,155.87V93.182h-50.371v24.891L440.022,155.87z M215.475,470.885 H296.5c-0.026-0.332-0.051-0.677-0.051-1.022v-171.8h-80.923v171.8C215.526,470.208,215.513,470.553,215.475,470.885z"/> <path d="M440.418,399.917c5.533,0.141,9.98,4.651,9.98,10.222c0,5.635-4.574,10.222-10.222,10.222h-9.98h-71.723h-9.98 c-5.648,0-10.222-4.587-10.222-10.222c0-5.571,4.447-10.082,9.98-10.222V287.841c0-5.648,4.587-10.222,10.222-10.222h71.723 c5.648,0,10.222,4.574,10.222,10.222V399.917z M419.973,399.917v-60.964h-51.278v60.964H419.973z M419.973,318.508v-20.445h-51.278 v20.445H419.973z"/> <path d="M255.994,143.846c28.252,0,51.24,22.988,51.24,51.24c0,28.265-22.988,51.252-51.24,51.252 c-28.265,0-51.252-22.988-51.252-51.252C204.741,166.834,227.729,143.846,255.994,143.846z M226.937,184.863h58.101 c-4.229-11.973-15.653-20.573-29.044-20.573C242.59,164.291,231.166,172.891,226.937,184.863z M285.038,205.308h-58.101 c4.23,11.973,15.653,20.585,29.057,20.585C269.385,225.894,280.808,217.281,285.038,205.308z"/> <path d="M243.407,381.733c1.904,1.917,3.003,4.549,3.003,7.232c0,2.696-1.099,5.328-3.003,7.232c-1.904,1.904-4.536,2.99-7.232,2.99 c-2.683,0-5.316-1.086-7.22-2.99c-1.904-1.904-2.99-4.536-2.99-7.232c0-2.683,1.086-5.328,2.99-7.232 c1.904-1.891,4.536-2.99,7.22-2.99C238.871,378.743,241.503,379.842,243.407,381.733z"/> <path d="M164.631,399.917c5.558,0.102,10.031,4.638,10.031,10.222c0,5.635-4.575,10.222-10.222,10.222h-10.031H82.686h-9.928 c-5.648,0-10.222-4.587-10.222-10.222c0-5.558,4.421-10.056,9.928-10.21V287.841c0-5.648,4.575-10.222,10.222-10.222h71.723 c5.635,0,10.222,4.574,10.222,10.222V399.917z M144.186,399.917v-60.964H92.909v60.964H144.186z M144.186,318.508v-20.445H92.909 v20.445H144.186z"/> </g>
</svg>