<!DOCTYPE svg PUBLIC "-//W3C//DTD SVG 1.1//EN" "http://www.w3.org/Graphics/SVG/1.1/DTD/svg11.dtd">
<!-- Uploaded to: SVG Repo, www.svgrepo.com, Transformed by: SVG Repo Mixer Tools -->
<svg fill="#9067C6" width="800px" height="800px" viewBox="0 0 32 32" version="1.1" xmlns="http://www.w3.org/2000/svg">
<g id="SVGRepo_bgCarrier" stroke-width="0"/>
<g id="SVGRepo_tracerCarrier" stroke-linecap="round" stroke-linejoin="round"/>
<g id="SVGRepo_iconCarrier"> <title>trash-can</title> <path d="M4 6.016l4 21.984q0 1.088 1.056 2.016t2.944 1.472 4 0.512 4.032-0.512 2.912-1.472 1.056-2.016l4-21.984q0-1.632-1.6-3.008t-4.384-2.176-6.016-0.832-6.016 0.832-4.384 2.176-1.6 3.008zM8 6.016q0-1.088 1.056-2.016t2.944-1.44 4-0.544 4.032 0.544 2.912 1.44 1.056 2.016-1.056 1.984-2.912 1.472-4.032 0.544-4-0.544-2.944-1.472-1.056-1.984z"/> </g>
</svg>